<?xml version="1.0" encoding="utf-8"?>
<!-- Generator: Adobe Illustrator 28.2.0, SVG Export Plug-In . SVG Version: 6.00 Build 0)  -->
<svg version="1.1" id="Layer_1" xmlns="http://www.w3.org/2000/svg" xmlns:xlink="http://www.w3.org/1999/xlink" x="0px" y="0px"
	 viewBox="0 0 1359.6 1506" style="enable-background:new 0 0 1359.6 1506;" xml:space="preserve">
<style type="text/css">
	.st0{fill-rule:evenodd;clip-rule:evenodd;fill:url(#SVGID_1_);}
	.st1{fill-rule:evenodd;clip-rule:evenodd;fill:url(#SVGID_00000065787801738500718990000008139861862757268918_);}
	.st2{fill-rule:evenodd;clip-rule:evenodd;fill:url(#SVGID_00000096034655127651995170000006423065748450621062_);}
</style>
<linearGradient id="SVGID_1_" gradientUnits="userSpaceOnUse" x1="825.6195" y1="954.1004" x2="-89.4592" y2="573.1724">
	<stop  offset="0" style="stop-color:#6D6E71"/>
	<stop  offset="1" style="stop-color:#A5AAB6"/>
</linearGradient>
<path class="st0" d="M709.1,1211.2c-103.8,60-226.9,74.8-341,42.6c-34.3-16.6-72.8-25.9-113.6-25.9c-3,0-5.9,0.1-8.8,0.2
	c-2.7,0.1-5.4,0.2-8.2,0.4c-3.5,0.2-7.1,0.5-10.6,0.9c-77.5,8.2-153.5-27-194.8-92.6c-1.2-2-2.4-3.9-3.5-5.9
	c-0.5-0.9-1.1-1.9-1.6-2.8c-1.2-2.1-2.4-4.2-3.5-6.4c-35.6-67.5-30.4-150.4,14.9-212.2c0.2-0.2,0.4-0.6,0.6-0.8
	c3.5-4.7,6.8-9.5,9.9-14.4c1.4-2.1,2.6-4.1,3.9-6.2c1.5-2.4,2.9-4.8,4.2-7.3c3.5-6.1,6.7-12.4,9.6-18.8c0.9-1.9,1.8-3.9,2.6-5.9
	c0.7-1.7,1.5-3.5,2.1-5.3c0.9-2.1,1.7-4.3,2.6-6.4c1.2-3.2,2.3-6.3,3.4-9.6c1.2-3.8,2.4-7.7,3.5-11.5c0.8-2.6,1.5-5.3,2.1-7.9
	c0.1-0.5,0.2-1.1,0.4-1.7c0.7-3.1,1.4-6.2,2.1-9.3c0.4-2.2,0.9-4.5,1.2-6.7c0.5-2.7,0.9-5.4,1.3-8.2c0.6-4.3,1.1-8.5,1.5-12.8
	c0.2-2.2,0.4-4.5,0.5-6.6c2.1-30.7-1.2-61.9-10.3-92.3c-2.5-8.2-5.3-16.3-8.7-24.3c-2.1-5.4-4.5-10.7-7.2-15.9
	c-2.6-5.3-5.4-10.6-8.3-15.7c-1.6-2.8-3.2-5.5-4.9-8.2c-1.2-2.1-2.6-4-3.9-6c-1.8-2.8-3.7-5.6-5.7-8.3
	C-5.2,535.9-12.7,451.9,24,383.1c1-2,2.1-4,3.2-5.9c0.6-0.9,1.1-1.9,1.6-2.8c1.2-2,2.3-3.9,3.5-5.8c41-65.1,116.4-101.3,193.2-92.9
	c1.2,0.2,2.4,0.2,3.6,0.3c2,0.2,4,0.4,5.9,0.5c1.5,0.1,3,0.2,4.5,0.2c2,0.2,4,0.2,5.9,0.2c2.6,0.2,5.4,0.2,8,0.2
	c13.8,0,27.5-1.1,41-3.2c6.7-1.1,13.4-2.4,20-4c13.4-3.1,26.4-7.3,39-12.5c9.5-4,18.7-8.4,27.7-13.4c2.2-1.2,4.5-2.5,6.7-3.8
	c4.5-2.6,8.8-5.4,13.1-8.3c2.1-1.5,4.2-3,6.3-4.5c-88.1,83-138.7,199.1-138.7,321.5c0,209,145.5,386,343.7,431
	c20.8,6.2,42.8,9.6,65.6,9.8h2.1c130.8,0,236.8-106,236.8-236.9c0-18.9-2.2-37.4-6.4-55C970.6,892.1,890.1,1106.7,709.1,1211.2z"/>
<linearGradient id="SVGID_00000049929816339701649170000011122867092560908435_" gradientUnits="userSpaceOnUse" x1="763.2365" y1="538.1822" x2="922.8432" y2="1480.926">
	<stop  offset="0" style="stop-color:#6D6E71"/>
	<stop  offset="1" style="stop-color:#A5AAB6"/>
</linearGradient>
<path style="fill-rule:evenodd;clip-rule:evenodd;fill:url(#SVGID_00000049929816339701649170000011122867092560908435_);" d="
	M1336.4,1121.8c-1.1,2-2.1,4-3.2,5.9c-0.6,1.1-1.2,2.1-1.7,3.1c-39.3,67.6-115,107.3-192.7,99c-0.7-0.1-1.5-0.2-2.2-0.2
	c-10.2-1.2-20.5-1.8-30.8-1.8c-2.8,0-5.6,0.1-8.4,0.2c-2.8,0.1-5.6,0.2-8.4,0.4c-2.5,0.2-4.9,0.3-7.4,0.6c-2.1,0.2-4,0.4-6,0.7
	c-1.6,0.2-3.4,0.3-5,0.6c-7.2,1-14.3,2.2-21.2,3.8c-3.1,0.7-6.1,1.4-9.2,2.2c-2.8,0.7-5.6,1.5-8.4,2.3c-2.1,0.6-4.1,1.2-6.1,1.9
	c-2.4,0.7-4.7,1.5-7,2.4c-1.8,0.6-3.6,1.2-5.4,2c-2.1,0.7-4,1.5-6,2.3c-2.6,1-5.2,2.1-7.8,3.3c-12.9,5.7-25.3,12.5-37.2,20.2
	c-4.7,3.1-9.4,6.3-13.9,9.7c-2.3,1.7-4.5,3.5-6.8,5.3c-4.5,3.5-8.8,7.3-13,11.2c-8.8,8.1-17.1,16.7-24.7,26.1
	c-1.4,1.6-2.8,3.4-4.1,5.1c-0.4,0.5-0.8,1-1.2,1.5c-1.6,2.1-3.2,4.2-4.8,6.4c-1.7,2.4-3.5,4.9-5.1,7.3c-3.4,4.9-6.5,10-9.6,15.3
	c-1.2,2.1-2.4,4.2-3.5,6.3c-0.3,0.5-0.6,1.1-0.8,1.6c-1.4,2.6-2.7,5.2-4,7.8c-1.3,2.6-2.6,5.2-3.7,7.8c-0.2,0.6-0.6,1.2-0.8,1.8
	c-31.5,71-99.8,119.2-177,122.3c-1.6,0.1-3.4,0.1-5.1,0.1c-0.8,0.1-1.6,0.1-2.4,0.1h-3.5c-0.8,0-1.6,0-2.5-0.1c-1.6,0-3.4,0-5-0.1
	c-77.3-3.2-145.4-51.7-177.1-122.8c-1.2-2.6-2.3-5-3.5-7.5c-0.7-1.4-1.3-2.8-2.1-4.1c-1-2.1-2.1-4.2-3.3-6.3c-0.8-1.7-1.8-3.4-2.8-5
	c-0.7-1.5-1.6-3.1-2.6-4.5c-0.8-1.6-1.8-3.1-2.8-4.6c-3.1-5-6.4-10-10.1-14.8c-1.3-2-2.7-3.9-4.3-5.8c-3.3-4.4-6.8-8.7-10.6-12.9
	c-0.7-1.1-1.6-2.1-2.6-3.1c-1.9-2.1-3.8-4.2-5.8-6.3c-0.7-0.7-1.4-1.5-2.1-2.1c-2.7-2.9-5.5-5.6-8.4-8.2c-1.4-1.4-2.9-2.7-4.4-4
	c-1.4-1.4-2.9-2.6-4.4-3.8c-1.7-1.6-3.5-3.1-5.4-4.5c-1.5-1.2-3.1-2.5-4.6-3.6c-1.5-1.2-3.1-2.4-4.7-3.5c-3.1-2.3-6.3-4.5-9.6-6.7
	c-2.3-1.6-4.7-3.1-7.1-4.5c-3.6-2.3-7.3-4.5-11-6.5c-1.5-0.8-3-1.6-4.5-2.4c-2.9-1.6-5.8-3.1-8.7-4.5c114,32.2,237.2,17.3,341-42.6
	c181-104.5,261.5-319.1,201.3-513.3C885.6,593.7,791.9,516.1,680,516.1c-63.4,0-121,24.9-163.4,65.4
	c138-149.7,364.5-187.5,545.7-82.9c104.2,60.2,178.7,159.8,207.6,275.2c3.1,37.3,14.3,74.5,34.2,108.9c2.2,3.9,4.6,7.8,7,11.5
	c0.2,0.3,0.5,0.7,0.7,1.1c2.6,3.8,5.1,7.6,7.8,11.2C1365.6,969.5,1372.8,1053.3,1336.4,1121.8z"/>
<linearGradient id="SVGID_00000051363164170017770720000005413151744072769437_" gradientUnits="userSpaceOnUse" x1="451.925" y1="788.6794" x2="1186.116" y2="182.1738">
	<stop  offset="0" style="stop-color:#6D6E71"/>
	<stop  offset="1" style="stop-color:#A5AAB6"/>
</linearGradient>
<path style="fill-rule:evenodd;clip-rule:evenodd;fill:url(#SVGID_00000051363164170017770720000005413151744072769437_);" d="
	M1321.1,595.4c-0.7,1.1-1.5,2.1-2.2,3.1c-1.8,2.6-3.6,5.1-5.4,7.8c-0.2,0.3-0.4,0.7-0.7,1c-1.8,2.8-3.6,5.6-5.4,8.5
	c-7.5,12.3-13.9,25.2-19.3,38.4c-2.1,5.2-4,10.4-5.8,15.7c-1,3.1-2,6.3-2.9,9.4c-0.4,1.4-0.8,2.7-1.2,4.1c-2,7.4-3.7,14.8-5,22.3
	c-0.6,3.1-1.1,6.2-1.5,9.3c-1.2,7.9-2,15.9-2.4,24c-0.1,1.6-0.2,3.2-0.2,4.8c-0.3,10-0.1,20,0.7,30
	c-28.9-115.4-103.5-215-207.6-275.2C881.1,394,654.5,431.9,516.6,581.5c-45.3,43.1-73.5,104-73.5,171.4
	c0,107.4,71.3,198,169.2,227.1c-198.2-44.9-343.7-222-343.7-431c0-122.4,50.6-238.5,138.7-321.5c11.4-8.2,22.3-17.5,32.3-27.7
	c15.5-15.7,29.3-33.5,40.8-53.4c1.5-2.6,2.9-5.1,4.2-7.7c1.4-2.6,2.7-5.1,4-7.7c1.2-2.6,2.4-5,3.5-7.5c0.2-0.4,0.4-0.8,0.6-1.2
	c31.8-70.9,99.9-119.1,177-122.2C673.2,0,676.6,0,679.9,0c1.2,0,2.4,0,3.5,0.1c78.1,0.8,149.5,47.2,181,118.6c0.2,0.3,0.3,0.7,0.5,1
	c1.2,2.9,2.6,5.8,4,8.6c1.3,2.9,2.7,5.7,4.2,8.4c0.7,1.4,1.5,2.8,2.2,4.1c0.7,1.4,1.5,2.8,2.3,4.1c1.3,2.5,2.8,4.9,4.3,7.3
	c3.5,5.5,7.1,11,10.9,16.2c1.8,2.5,3.6,4.9,5.6,7.4c2.5,3.1,4.9,6.3,7.6,9.3c1.4,1.7,2.9,3.4,4.5,5c1.9,2.1,3.9,4.3,5.9,6.3
	c1.8,1.9,3.6,3.7,5.4,5.4c1.6,1.6,3.4,3.3,5,4.9c3.5,3.2,7,6.3,10.6,9.2c2.2,1.9,4.5,3.7,6.8,5.5c5.1,4,10.3,7.7,15.7,11.2
	c2.4,1.6,4.9,3.2,7.3,4.8c10.8,6.7,22.1,12.6,33.9,17.7c1.6,0.7,3.2,1.4,4.9,2.1c2.1,0.9,4.3,1.7,6.3,2.5c1.8,0.7,3.6,1.4,5.4,2
	c3.2,1.2,6.4,2.2,9.7,3.2c4.1,1.3,8.3,2.5,12.5,3.5c2.2,0.6,4.5,1.2,6.8,1.6c3.1,0.7,6.3,1.4,9.6,2c3,0.6,5.9,1.1,9,1.6
	c12.9,2,26.1,3,39.6,3c2.9,0,5.9-0.1,8.7-0.2c1.3,0,2.6-0.1,4-0.2c0.7,0,1.3-0.1,2-0.1c0.7,0,1.3-0.1,2-0.2c3.1-0.2,6.3-0.4,9.4-0.7
	c0.4,0,0.8,0,1.2-0.1c77.4-8.1,153.4,27,194.8,92.4c1.2,1.9,2.4,3.8,3.5,5.8c0.5,0.9,1.1,1.9,1.6,2.8c1.2,2,2.2,3.9,3.2,5.9
	C1371.5,449.9,1365.1,532.3,1321.1,595.4z"/>
</svg>
