<?xml version="1.0" encoding="UTF-8" standalone="no"?>
<svg
   xmlns:dc="http://purl.org/dc/elements/1.1/"
   xmlns:cc="http://creativecommons.org/ns#"
   xmlns:rdf="http://www.w3.org/1999/02/22-rdf-syntax-ns#"
   xmlns:svg="http://www.w3.org/2000/svg"
   xmlns="http://www.w3.org/2000/svg"
   xmlns:sodipodi="http://sodipodi.sourceforge.net/DTD/sodipodi-0.dtd"
   xmlns:inkscape="http://www.inkscape.org/namespaces/inkscape"
   width="20"
   height="20"
   viewBox="0 0 20 20"
   version="1.1"
   id="svg3753"
   sodipodi:docname="icon24.svg"
   inkscape:version="0.92.4 (5da689c313, 2019-01-14)">
  <metadata
     id="metadata3759">
    <rdf:RDF>
      <cc:Work
         rdf:about="">
        <dc:format>image/svg+xml</dc:format>
        <dc:type
           rdf:resource="http://purl.org/dc/dcmitype/StillImage" />
        <dc:title></dc:title>
      </cc:Work>
    </rdf:RDF>
  </metadata>
  <defs
     id="defs3757" />
  <sodipodi:namedview
     pagecolor="#ffffff"
     bordercolor="#666666"
     borderopacity="1"
     objecttolerance="10"
     gridtolerance="10"
     guidetolerance="10"
     inkscape:pageopacity="0"
     inkscape:pageshadow="2"
     inkscape:window-width="3360"
     inkscape:window-height="1975"
     id="namedview3755"
     showgrid="false"
     inkscape:zoom="41.7"
     inkscape:cx="9.2225168"
     inkscape:cy="10.857159"
     inkscape:window-x="-13"
     inkscape:window-y="-13"
     inkscape:window-maximized="1"
     inkscape:current-layer="layer1" />
  <path
     fill="none"
     d="M0 0h20v20H0V0z"
     id="path3749" />
  <path
     d="m 17.658972,11.022026 c 0.03855,-0.3122 0.06426,-0.636888 0.06426,-0.974064 0,-0.3371766 -0.0257,-0.6618648 -0.07711,-0.9740652 l 2.172002,-1.6484172 c 0.192782,-0.1498561 0.24419,-0.4245923 0.128521,-0.6368884 L 17.89031,3.3294125 C 17.761789,3.1046283 17.491896,3.0297002 17.260559,3.1046283 L 14.702996,4.1036691 C 14.163209,3.7040528 13.597718,3.3793645 12.967967,3.1296043 L 12.582405,0.48214629 C 12.543853,0.23238609 12.325363,0.05755396 12.068322,0.05755396 H 7.9556591 c -0.2570415,0 -0.4626745,0.17483213 -0.5012308,0.42459233 L 7.0688662,3.1296043 C 6.4391147,3.3793645 5.8607714,3.7165408 5.3338366,4.1036691 L 2.7762744,3.1046283 c -0.2313372,-0.087416 -0.5012307,0 -0.6297515,0.2247842 L 0.09019158,6.7885912 C -0.03832913,7.0133753 0.01307916,7.2756235 0.21871229,7.4254796 L 2.3907123,9.0738968 c -0.051408,0.3122004 -0.089965,0.6493765 -0.089965,0.9740652 0,0.324688 0.025704,0.661864 0.077113,0.974064 l -2.17199998,1.648418 c -0.19278106,0.149855 -0.24418935,0.424592 -0.12852071,0.636888 L 2.1336709,16.76651 c 0.1285207,0.224785 0.3984142,0.299713 0.6297514,0.224785 l 2.5575622,-0.99904 c 0.5397869,0.399616 1.1052781,0.724303 1.7350296,0.974064 l 0.3855621,2.647458 c 0.051408,0.249761 0.2570414,0.424592 0.5140829,0.424592 h 4.1126629 c 0.257041,0 0.475526,-0.174831 0.501231,-0.424592 l 0.385561,-2.647458 c 0.629752,-0.249761 1.208095,-0.586936 1.73503,-0.974064 l 2.557563,0.99904 c 0.231337,0.08742 0.50123,0 0.629751,-0.224785 l 2.056331,-3.459178 c 0.128521,-0.224784 0.07711,-0.487033 -0.128521,-0.636888 z m -7.646982,2.772339 c -2.1205912,0 -3.855621,-1.685881 -3.855621,-3.746403 0,-2.060522 1.7350298,-3.7464033 3.855621,-3.7464033 2.120592,0 3.855622,1.6858813 3.855622,3.7464033 0,2.060522 -1.73503,3.746403 -3.855622,3.746403 z"
     id="path3751"
     inkscape:connector-curvature="0"
     style="stroke-width:1.26687324" />
  <g
     inkscape:groupmode="layer"
     id="layer1"
     inkscape:label="person">
    <path
       id="path3773"
       d="m -12.815348,-6.7601918 h 24 V 17.239808 h -24 z"
       style="opacity:1;fill:none"
       inkscape:connector-curvature="0" />
    <path
       style="opacity:1;stroke-width:0.43805543"
       id="path3775"
       d="m 10.239808,6.0071944 c -2.568057,0 -4.6522778,1.8478657 -4.6522778,4.1246986 0,2.276835 2.0842208,4.124701 4.6522778,4.124701 2.568059,0 4.652278,-1.847866 4.652278,-4.124701 0,-2.2768329 -2.084219,-4.1246986 -4.652278,-4.1246986 z M 7.9462344,12.722207 c 0.200048,-0.371227 1.4189458,-0.734198 2.2935736,-0.734198 0.874628,0 2.098177,0.362971 2.293572,0.734198 -0.63271,0.445466 -1.428246,0.709446 -2.293572,0.709446 -0.8653234,0 -1.6608635,-0.26398 -2.2935736,-0.709446 z m 5.2524226,-0.598083 c -0.665277,-0.717697 -2.279616,-0.961056 -2.958849,-0.961056 -0.6792322,0 -2.2935736,0.243359 -2.9588487,0.961056 -0.4745328,-0.552708 -0.762974,-1.241534 -0.762974,-1.992231 0,-1.8189909 1.6701677,-3.2997586 3.7218227,-3.2997586 2.051655,0 3.721822,1.4807677 3.721822,3.2997586 0,0.750697 -0.288439,1.439523 -0.762973,1.992231 z M 10.239808,7.6570746 c -0.9025416,0 -1.6282974,0.643453 -1.6282974,1.4436463 0,0.8001907 0.7257558,1.4436431 1.6282974,1.4436431 0.902544,0 1.628298,-0.6434524 1.628298,-1.4436431 0,-0.8001933 -0.725754,-1.4436463 -1.628298,-1.4436463 z m 0,2.0623493 c -0.3861386,0 -0.6978413,-0.2763535 -0.6978413,-0.618703 0,-0.3423511 0.3117027,-0.6187058 0.6978413,-0.6187058 0.386139,0 0.697841,0.2763547 0.697841,0.6187058 0,0.3423495 -0.311702,0.618703 -0.697841,0.618703 z"
       inkscape:connector-curvature="0" />
  </g>
</svg>
