<?xml version="1.0" encoding="utf-8"?>
<!-- Generator: Adobe Illustrator 28.2.0, SVG Export Plug-In . SVG Version: 6.00 Build 0)  -->
<svg version="1.1" id="Layer_1" xmlns="http://www.w3.org/2000/svg" xmlns:xlink="http://www.w3.org/1999/xlink" x="0px" y="0px"
	 viewBox="750 360 800 800" style="enable-background:new 0 0 2292 1506;" xml:space="preserve">
<style type="text/css">
	.st1{fill-rule:evenodd;clip-rule:evenodd;fill:url(#SVGID_1_);}
	.st2{fill-rule:evenodd;clip-rule:evenodd;fill:url(#SVGID_00000163041663115378296960000001254522213340551078_);}
	.st3{fill-rule:evenodd;clip-rule:evenodd;fill:url(#SVGID_00000071524109061458232850000000372416903019888316_);}
</style>
<g>
	<g>
		<linearGradient id="SVGID_1_" gradientUnits="userSpaceOnUse" x1="1219.6519" y1="854.5722" x2="757.4966" y2="662.1866">
			<stop  offset="0" style="stop-color:#008091"/>
			<stop  offset="1" style="stop-color:#68E571"/>
		</linearGradient>
		<path class="st1" d="M1160.8,984.4c-52.4,30.3-114.6,37.8-172.2,21.5c-17.3-8.4-36.8-13.1-57.3-13.1c-1.5,0-3,0-4.5,0.1
			c-1.4,0-2.7,0.1-4.2,0.2c-1.8,0.1-3.6,0.2-5.4,0.5c-39.1,4.1-77.5-13.7-98.4-46.8c-0.6-1-1.2-2-1.8-3c-0.2-0.5-0.5-1-0.8-1.4
			c-0.6-1.1-1.2-2.1-1.8-3.2c-18-34.1-15.4-76,7.5-107.2c0.1-0.1,0.2-0.3,0.3-0.4c1.7-2.4,3.5-4.8,5-7.3c0.7-1,1.3-2.1,2-3.1
			c0.7-1.2,1.5-2.4,2.1-3.7c1.7-3.1,3.4-6.2,4.8-9.5c0.5-1,0.9-2,1.3-3c0.4-0.9,0.7-1.7,1.1-2.7c0.5-1.1,0.9-2.2,1.3-3.2
			c0.6-1.6,1.2-3.2,1.7-4.8c0.6-1.9,1.2-3.9,1.7-5.8c0.4-1.3,0.7-2.7,1.1-4c0-0.2,0.1-0.5,0.2-0.9c0.4-1.5,0.7-3.1,1-4.7
			c0.2-1.1,0.5-2.2,0.6-3.4c0.2-1.4,0.5-2.7,0.7-4.1c0.3-2.2,0.5-4.3,0.7-6.5c0.1-1.1,0.2-2.2,0.3-3.3c1.1-15.5-0.6-31.3-5.2-46.6
			c-1.2-4.2-2.7-8.2-4.4-12.3c-1.1-2.7-2.3-5.4-3.6-8c-1.3-2.7-2.7-5.3-4.2-7.9c-0.8-1.4-1.6-2.8-2.5-4.1c-0.6-1-1.3-2-2-3
			c-0.9-1.4-1.9-2.8-2.9-4.2c-23.2-32.1-27-74.5-8.5-109.3c0.5-1,1-2,1.6-3c0.3-0.5,0.5-1,0.8-1.4c0.6-1,1.2-2,1.7-2.9
			c20.7-32.9,58.8-51.1,97.6-46.9c0.6,0.1,1.2,0.1,1.8,0.2c1,0.1,2,0.2,3,0.2c0.7,0,1.5,0.1,2.2,0.1c1,0.1,2,0.1,3,0.1
			c1.3,0.1,2.7,0.1,4,0.1c7,0,13.9-0.5,20.7-1.6c3.4-0.5,6.7-1.2,10.1-2c6.7-1.6,13.3-3.7,19.7-6.3c4.8-2,9.5-4.2,14-6.7
			c1.1-0.6,2.2-1.2,3.4-1.9c2.2-1.3,4.5-2.7,6.6-4.2c1.1-0.7,2.1-1.5,3.2-2.2c-44.5,41.9-70.1,100.6-70.1,162.4
			c0,105.5,73.5,195,173.6,217.7c10.5,3.1,21.6,4.8,33.2,5h1c66.1,0,119.6-53.6,119.6-119.7c0-9.5-1.1-18.9-3.2-27.8
			C1292.9,823.3,1252.2,931.7,1160.8,984.4z"/>
		
			<linearGradient id="SVGID_00000137095234476985291360000010325566585097242520_" gradientUnits="userSpaceOnUse" x1="1188.1456" y1="644.5151" x2="1268.7542" y2="1120.6425">
			<stop  offset="0" style="stop-color:#008091"/>
			<stop  offset="1" style="stop-color:#68E571"/>
		</linearGradient>
		<path style="fill-rule:evenodd;clip-rule:evenodd;fill:url(#SVGID_00000137095234476985291360000010325566585097242520_);" d="
			M1477.6,939.2c-0.5,1-1.1,2-1.6,3c-0.3,0.5-0.6,1-0.9,1.5c-19.8,34.2-58.1,54.2-97.3,50c-0.4,0-0.7-0.1-1.1-0.1
			c-5.2-0.6-10.4-0.9-15.5-0.9c-1.4,0-2.8,0-4.2,0.1c-1.4,0-2.8,0.1-4.2,0.2c-1.2,0.1-2.5,0.2-3.7,0.3c-1,0.1-2,0.2-3,0.3
			c-0.8,0.1-1.7,0.2-2.5,0.3c-3.6,0.5-7.2,1.1-10.7,1.9c-1.5,0.3-3.1,0.7-4.6,1.1c-1.4,0.3-2.8,0.7-4.2,1.2c-1,0.3-2.1,0.6-3.1,1
			c-1.2,0.4-2.4,0.7-3.5,1.2c-0.9,0.3-1.8,0.6-2.7,1c-1,0.3-2,0.7-3,1.2c-1.3,0.5-2.6,1.1-3.9,1.7c-6.5,2.9-12.8,6.3-18.8,10.2
			c-2.4,1.5-4.7,3.2-7,4.9c-1.2,0.9-2.3,1.7-3.4,2.7c-2.2,1.8-4.5,3.7-6.6,5.7c-4.5,4.1-8.6,8.5-12.5,13.2c-0.7,0.8-1.4,1.7-2.1,2.6
			c-0.2,0.2-0.4,0.5-0.6,0.7c-0.8,1-1.6,2.1-2.4,3.2c-0.9,1.2-1.7,2.5-2.6,3.7c-1.7,2.5-3.3,5-4.8,7.7c-0.6,1-1.2,2.1-1.7,3.2
			c-0.2,0.2-0.3,0.5-0.4,0.8c-0.7,1.3-1.4,2.6-2,3.9c-0.7,1.3-1.3,2.6-1.9,4c-0.1,0.3-0.3,0.6-0.4,0.9
			c-15.9,35.9-50.4,60.2-89.4,61.8c-0.8,0-1.7,0-2.6,0c-0.4,0-0.8,0-1.2,0h-1.8c-0.4,0-0.8,0-1.2,0c-0.8,0-1.7,0-2.5,0
			c-39-1.6-73.4-26.1-89.5-62c-0.6-1.3-1.2-2.5-1.8-3.8c-0.3-0.7-0.7-1.4-1-2.1c-0.5-1.1-1-2.1-1.7-3.2c-0.4-0.9-0.9-1.7-1.4-2.5
			c-0.4-0.7-0.8-1.5-1.3-2.3c-0.4-0.8-0.9-1.5-1.4-2.3c-1.6-2.5-3.2-5-5.1-7.5c-0.7-1-1.4-2-2.2-2.9c-1.7-2.2-3.4-4.4-5.3-6.5
			c-0.4-0.5-0.8-1-1.3-1.5c-1-1.1-1.9-2.1-2.9-3.2c-0.4-0.4-0.7-0.7-1.1-1.1c-1.4-1.5-2.8-2.8-4.2-4.1c-0.7-0.7-1.5-1.4-2.2-2
			c-0.7-0.7-1.5-1.3-2.2-1.9c-0.9-0.8-1.8-1.5-2.7-2.3c-0.7-0.6-1.5-1.2-2.3-1.8c-0.7-0.6-1.5-1.2-2.4-1.8c-1.6-1.2-3.2-2.3-4.8-3.4
			c-1.2-0.8-2.4-1.6-3.6-2.3c-1.8-1.2-3.7-2.2-5.6-3.3c-0.7-0.4-1.5-0.8-2.2-1.2c-1.5-0.8-2.9-1.5-4.4-2.2
			c57.6,16.2,119.8,8.7,172.2-21.5c91.4-52.8,132.1-161.2,101.7-259.2c-12.5-52.7-59.9-91.8-116.4-91.8c-32,0-61.1,12.6-82.5,33
			c69.7-75.6,184.1-94.7,275.6-41.9c52.6,30.4,90.3,80.7,104.9,139c1.6,18.8,7.2,37.6,17.3,55c1.1,2,2.3,3.9,3.5,5.8
			c0.1,0.2,0.2,0.4,0.3,0.5c1.3,1.9,2.6,3.8,3.9,5.7C1492.4,862.4,1496,904.7,1477.6,939.2z"/>
		
			<linearGradient id="SVGID_00000129896624197610241970000012839516189804227750_" gradientUnits="userSpaceOnUse" x1="1030.9196" y1="771.0273" x2="1401.7185" y2="464.7151">
			<stop  offset="0" style="stop-color:#008091"/>
			<stop  offset="1" style="stop-color:#68E571"/>
		</linearGradient>
		<path style="fill-rule:evenodd;clip-rule:evenodd;fill:url(#SVGID_00000129896624197610241970000012839516189804227750_);" d="
			M1469.9,673.4c-0.4,0.5-0.7,1-1.1,1.6c-0.9,1.3-1.8,2.6-2.7,3.9c-0.1,0.2-0.2,0.3-0.3,0.5c-0.9,1.4-1.8,2.8-2.7,4.3
			c-3.8,6.2-7,12.7-9.7,19.4c-1,2.6-2,5.2-2.9,7.9c-0.5,1.6-1,3.2-1.5,4.7c-0.2,0.7-0.4,1.4-0.6,2.1c-1,3.7-1.9,7.5-2.5,11.3
			c-0.3,1.6-0.5,3.1-0.7,4.7c-0.6,4-1,8-1.2,12.1c0,0.8-0.1,1.6-0.1,2.4c-0.2,5,0,10.1,0.4,15.2c-14.6-58.3-52.3-108.6-104.9-139
			c-91.5-52.9-205.9-33.7-275.6,41.9c-22.9,21.8-37.1,52.5-37.1,86.6c0,54.2,36,100,85.5,114.7C1011.9,845,938.3,755.6,938.3,650
			c0-61.8,25.6-120.4,70.1-162.4c5.7-4.2,11.2-8.8,16.3-14c7.8-7.9,14.8-16.9,20.6-27c0.7-1.3,1.5-2.6,2.1-3.9
			c0.7-1.3,1.4-2.6,2-3.9c0.6-1.3,1.2-2.5,1.8-3.8c0.1-0.2,0.2-0.4,0.3-0.6c16.1-35.8,50.4-60.1,89.4-61.7c1.7-0.1,3.4-0.1,5.1-0.1
			c0.6,0,1.2,0,1.8,0c39.4,0.4,75.5,23.8,91.4,59.9c0.1,0.2,0.2,0.3,0.2,0.5c0.6,1.5,1.3,2.9,2,4.3c0.7,1.5,1.4,2.9,2.1,4.2
			c0.4,0.7,0.7,1.4,1.1,2.1c0.4,0.7,0.7,1.4,1.2,2.1c0.7,1.2,1.4,2.5,2.2,3.7c1.7,2.8,3.6,5.5,5.5,8.2c0.9,1.2,1.8,2.5,2.8,3.7
			c1.2,1.6,2.5,3.2,3.8,4.7c0.7,0.9,1.5,1.7,2.2,2.5c1,1.1,2,2.2,3,3.2c0.9,1,1.8,1.9,2.7,2.7c0.8,0.8,1.7,1.7,2.5,2.5
			c1.7,1.6,3.5,3.2,5.3,4.7c1.1,1,2.2,1.9,3.4,2.8c2.6,2,5.2,3.9,7.9,5.7c1.2,0.8,2.5,1.6,3.7,2.4c5.5,3.4,11.2,6.4,17.1,9
			c0.8,0.4,1.6,0.7,2.5,1c1.1,0.5,2.2,0.9,3.2,1.2c0.9,0.4,1.8,0.7,2.7,1c1.6,0.6,3.2,1.1,4.9,1.6c2.1,0.7,4.2,1.2,6.3,1.8
			c1.1,0.3,2.3,0.6,3.5,0.8c1.6,0.4,3.2,0.7,4.8,1c1.5,0.3,3,0.5,4.5,0.8c6.5,1,13.2,1.5,20,1.5c1.5,0,3,0,4.4-0.1
			c0.7,0,1.3,0,2-0.1c0.3,0,0.7,0,1,0c0.3,0,0.7,0,1-0.1c1.6-0.1,3.2-0.2,4.7-0.4c0.2,0,0.4,0,0.6,0c39.1-4.1,77.5,13.6,98.4,46.7
			c0.6,1,1.2,1.9,1.8,2.9c0.2,0.5,0.5,1,0.8,1.4c0.6,1,1.1,2,1.6,3C1495.3,599.9,1492.1,641.5,1469.9,673.4z"/>
	</g>
</g>
</svg>
